<?xml version="1.0" standalone="no"?>
<!DOCTYPE svg PUBLIC "-//W3C//DTD SVG 20010904//EN"
 "http://www.w3.org/TR/2001/REC-SVG-20010904/DTD/svg10.dtd">
<svg version="1.0" xmlns="http://www.w3.org/2000/svg"
 width="512.000000pt" height="512.000000pt" viewBox="0 0 512.000000 512.000000"
 preserveAspectRatio="xMidYMid meet">
<metadata>
Created by potrace 1.16, written by Peter Selinger 2001-2019
</metadata>
<g transform="translate(0.000000,512.000000) scale(0.100000,-0.100000)"
fill="#000000" stroke="none">
<path d="M0 3353 c1 -1482 3 -1763 14 -1738 16 37 52 70 89 84 17 7 115 11
245 11 192 0 222 -3 259 -20 53 -24 81 -67 89 -142 l6 -57 657 -3 c628 -3 658
-4 705 -23 65 -27 141 -96 173 -159 33 -65 41 -169 19 -241 -8 -27 -13 -51
-10 -54 15 -15 160 56 960 472 484 250 901 461 927 468 68 17 164 7 231 -24
69 -32 177 -133 206 -192 27 -55 26 -114 -2 -154 -16 -22 -348 -241 -1058
-697 -569 -367 -1060 -678 -1090 -692 -51 -24 -64 -26 -180 -25 -286 3 -1381
23 -1456 27 l-82 5 -7 -55 c-7 -58 -46 -117 -89 -134 -12 -5 999 -9 2247 -9
l2267 -1 0 1768 c-1 1481 -3 1762 -14 1737 -16 -37 -52 -70 -89 -84 -17 -7
-116 -11 -246 -11 -205 0 -219 1 -261 23 -54 27 -80 68 -87 141 l-6 55 -656 3
c-744 4 -705 -1 -803 87 -104 93 -135 236 -82 376 7 16 3 17 -31 12 -21 -3
-426 -208 -924 -466 -487 -253 -908 -465 -934 -472 -68 -17 -164 -7 -231 24
-69 32 -177 133 -206 192 -27 55 -26 114 3 154 15 22 337 234 1027 678 553
355 1033 662 1068 683 72 44 162 64 250 56 31 -3 354 -10 717 -16 363 -6 692
-12 731 -15 l72 -5 7 56 c7 58 46 117 89 134 12 5 -999 9 -2246 9 l-2268 1 0
-1767z m2705 292 c456 -74 814 -422 900 -878 19 -102 19 -302 0 -404 -111
-584 -665 -973 -1250 -878 -394 64 -724 336 -858 710 -83 234 -82 512 4 749
98 269 298 486 563 612 199 94 421 125 641 89z"/>
<path d="M2381 3479 c-80 -14 -227 -65 -299 -105 -294 -165 -475 -472 -475
-809 0 -675 707 -1124 1312 -835 268 129 458 371 516 659 23 113 16 314 -14
419 -49 169 -130 301 -261 425 -135 128 -275 201 -455 238 -95 20 -232 23
-324 8z m206 -163 c25 -21 28 -31 31 -100 l4 -75 37 -6 c83 -14 203 -57 233
-84 42 -38 43 -94 3 -128 -32 -28 -64 -29 -115 -3 -22 11 -67 26 -100 34 l-60
14 0 -173 0 -173 78 -4 c90 -4 139 -25 195 -81 60 -60 81 -116 81 -217 0 -65
-5 -96 -21 -131 -43 -96 -145 -168 -272 -191 l-59 -11 -4 -75 c-3 -67 -6 -76
-32 -99 -24 -20 -37 -24 -65 -19 -55 8 -71 35 -71 121 l0 72 -57 6 c-156 17
-217 30 -240 53 -32 32 -31 87 2 119 28 29 49 30 165 10 143 -25 130 -38 130
129 l0 143 -79 6 c-95 7 -135 23 -189 72 -103 92 -127 268 -57 404 24 47 88
114 138 145 38 23 134 56 164 56 22 0 23 3 23 76 0 82 10 110 43 124 37 15 65
11 94 -14z"/>
<path d="M2372 2934 c-107 -53 -145 -157 -95 -257 18 -35 67 -57 128 -57 l45
0 0 170 c0 133 -3 170 -13 170 -7 0 -37 -12 -65 -26z"/>
<path d="M2633 2453 c-10 -4 -13 -43 -13 -150 l0 -145 33 7 c46 10 107 46 129
76 43 57 27 149 -32 190 -25 17 -94 30 -117 22z"/>
<path d="M5050 5098 c18 -13 41 -39 51 -58 l19 -35 0 58 0 57 -51 0 -52 0 33
-22z"/>
<path d="M4590 4270 l0 -690 180 0 180 0 0 690 0 690 -180 0 -180 0 0 -690z"/>
<path d="M2794 4779 c-29 -8 -2041 -1294 -2072 -1324 -11 -10 -5 -20 35 -55
57 -51 99 -70 150 -70 40 0 66 13 1263 635 305 159 575 295 600 304 39 13 153
16 848 19 l802 3 0 229 0 229 -32 5 c-18 3 -346 10 -728 16 -382 6 -726 12
-765 15 -38 2 -84 0 -101 -6z"/>
<path d="M3160 4111 c-147 -29 -189 -198 -69 -278 l43 -28 643 -3 643 -3 0
161 0 160 -612 -1 c-337 -1 -629 -4 -648 -8z"/>
<path d="M4095 1748 c-44 -22 -444 -230 -890 -461 -445 -231 -830 -427 -855
-436 -39 -13 -154 -16 -848 -19 l-802 -3 0 -229 c0 -127 1 -231 3 -231 13 -8
1600 -33 1625 -27 28 8 2035 1290 2070 1323 11 10 5 20 -35 55 -94 83 -148 89
-268 28z"/>
<path d="M170 850 l0 -690 180 0 180 0 0 690 0 690 -180 0 -180 0 0 -690z"/>
<path d="M700 1160 l0 -161 638 3 637 3 41 24 c105 60 111 193 13 258 l-43 28
-643 3 -643 3 0 -161z"/>
<path d="M0 57 l0 -57 51 0 52 0 -33 22 c-18 13 -41 39 -51 58 l-19 35 0 -58z"/>
</g>
</svg>
