<?xml version="1.0" standalone="no"?>
<!DOCTYPE svg PUBLIC "-//W3C//DTD SVG 20010904//EN"
 "http://www.w3.org/TR/2001/REC-SVG-20010904/DTD/svg10.dtd">
<svg version="1.0" xmlns="http://www.w3.org/2000/svg"
 width="256.000000pt" height="256.000000pt" viewBox="0 0 256.000000 256.000000"
 preserveAspectRatio="xMidYMid meet">

<g transform="translate(0.000000,256.000000) scale(0.100000,-0.100000)"
fill="#000000" stroke="none">
<path d="M1 1673 c0 -522 4 -879 9 -866 15 36 43 43 169 43 136 0 154 -8 166
-74 l7 -35 338 -3 c326 -3 340 -4 367 -24 64 -48 93 -138 63 -195 -9 -15 -7
-19 7 -19 10 0 222 106 471 235 250 130 470 238 491 241 68 11 182 -60 197
-123 14 -56 12 -58 -528 -405 -288 -184 -534 -341 -548 -348 -27 -14 -183 -15
-611 -4 l-247 7 -7 -31 c-3 -18 -18 -41 -32 -52 l-26 -20 1137 0 1136 0 -1
888 c0 521 -4 878 -9 865 -15 -36 -43 -43 -169 -43 -136 0 -154 8 -166 74 l-7
35 -338 3 c-326 3 -340 4 -367 24 -64 48 -93 138 -63 195 9 15 7 19 -7 19 -10
0 -222 -106 -471 -235 -250 -130 -470 -238 -491 -241 -48 -8 -113 19 -159 67
-38 38 -49 71 -36 105 6 17 160 121 509 345 275 176 520 333 544 347 43 25 48
26 210 24 91 -1 279 -5 417 -8 l251 -7 7 29 c4 16 17 39 28 52 l21 22 -1131 0
-1132 0 1 -887z m1374 142 c185 -39 336 -171 401 -351 122 -334 -117 -698
-473 -721 -161 -11 -308 43 -418 152 -76 74 -119 150 -145 251 -50 195 0 377
144 520 136 135 308 188 491 149z"/>
<path d="M1149 1732 c-293 -77 -438 -416 -289 -676 128 -225 412 -302 637
-175 67 38 152 131 186 203 127 268 -31 590 -320 651 -87 19 -132 18 -214 -3z
m141 -78 c8 -8 16 -31 19 -51 6 -34 9 -37 61 -50 60 -15 90 -37 90 -64 0 -24
-35 -43 -57 -30 -10 5 -35 13 -55 19 l-38 10 0 -89 0 -89 30 0 c45 0 102 -33
124 -71 27 -46 26 -116 -2 -161 -24 -38 -91 -78 -130 -78 -18 0 -22 -6 -22
-33 0 -44 -20 -70 -51 -65 -20 2 -25 10 -29 48 l-5 45 -67 10 c-75 11 -91 22
-86 56 3 23 6 24 81 21 l78 -3 -3 73 -3 73 -46 5 c-85 10 -131 63 -131 150 0
80 54 151 133 174 41 12 44 16 47 52 5 60 34 82 62 48z"/>
<path d="M1162 1455 c-33 -28 -45 -67 -30 -104 12 -33 25 -41 66 -41 l32 0 0
85 c0 77 -2 85 -19 85 -11 0 -33 -11 -49 -25z"/>
<path d="M1310 1154 l0 -76 28 6 c32 8 72 49 72 75 0 32 -39 71 -71 71 l-29 0
0 -76z"/>
<path d="M2522 2548 c8 -7 20 -22 26 -33 10 -18 11 -17 12 13 0 28 -3 32 -27
32 -23 0 -25 -2 -11 -12z"/>
<path d="M2290 2135 l0 -345 95 0 95 0 0 345 0 345 -95 0 -95 0 0 -345z"/>
<path d="M1389 2388 c-12 -5 -251 -155 -531 -335 -495 -318 -508 -327 -491
-346 28 -30 73 -49 100 -42 14 3 226 110 472 238 l446 232 413 3 412 3 0 118
0 119 -277 6 c-153 3 -333 7 -400 9 -67 2 -132 -1 -144 -5z"/>
<path d="M1553 2050 c-49 -20 -59 -96 -17 -129 26 -20 38 -21 350 -21 l324 0
0 80 0 80 -317 -1 c-175 0 -328 -4 -340 -9z"/>
<path d="M1630 662 l-455 -237 -412 -3 -413 -3 0 -118 0 -118 243 -7 c388 -10
572 -11 587 -2 8 5 243 155 523 334 494 317 507 326 490 345 -23 24 -67 47
-90 47 -10 -1 -223 -108 -473 -238z"/>
<path d="M80 425 l0 -345 95 0 95 0 0 345 0 345 -95 0 -95 0 0 -345z"/>
<path d="M350 580 l0 -81 331 3 331 3 19 24 c28 35 25 85 -7 110 -26 20 -38
21 -350 21 l-324 0 0 -80z"/>
<path d="M0 33 c0 -29 3 -33 27 -33 23 0 25 2 11 13 -8 6 -20 21 -26 32 -10
18 -11 17 -12 -12z"/>
</g>
</svg>
