<svg xmlns="http://www.w3.org/2000/svg" xmlns:xlink="http://www.w3.org/1999/xlink" version="1.1" x="0px" y="0px" viewBox="0 0 64 80" style="enable-background:new 0 0 64 64;" xml:space="preserve"><g><path d="M45,36.007c-4.963,0-9,4.037-9,9s4.037,9,9,9s9-4.037,9-9S49.963,36.007,45,36.007z M45,42.007v2h-2v2h2v2h-2   c0,1.103,0.897,2,2,2s2-0.897,2-2h2c0,2.206-1.794,4-4,4s-4-1.794-4-4h-2v-2h2v-2h-2v-2h2c0-2.206,1.794-4,4-4s4,1.794,4,4h-2   c0-1.103-0.897-2-2-2s-2,0.897-2,2H45z"/><path d="M57.479,41.393c-0.272-0.942-0.641-1.837-1.095-2.659l-0.278-0.504l1.777-2.967l-3.14-3.14l-2.967,1.777l-0.504-0.278   c-0.822-0.454-1.717-0.822-2.659-1.095l-0.552-0.16l-0.843-3.36H42.78l-0.843,3.36l-0.552,0.16   c-0.942,0.272-1.837,0.641-2.659,1.095l-0.504,0.278l-2.967-1.777l-3.14,3.14l1.777,2.967l-0.278,0.504   c-0.454,0.822-0.822,1.717-1.095,2.659l-0.16,0.552L29,42.788v4.439l3.36,0.843l0.16,0.552c0.272,0.942,0.641,1.837,1.095,2.659   l0.278,0.504l-1.777,2.967l3.14,3.14l2.967-1.777l0.504,0.278c0.822,0.454,1.717,0.822,2.659,1.095l0.552,0.16l0.843,3.36h4.439   l0.843-3.36l0.552-0.16c0.942-0.272,1.837-0.641,2.659-1.095l0.504-0.278l2.967,1.777l3.14-3.14l-1.777-2.967l0.278-0.504   c0.454-0.822,0.822-1.717,1.095-2.659l0.16-0.552L61,47.227v-4.439l-3.36-0.843L57.479,41.393z M45,56.007c-6.065,0-11-4.935-11-11   s4.935-11,11-11s11,4.935,11,11S51.065,56.007,45,56.007z"/><path d="M30.106,25.785l0.278-0.504c0.454-0.822,0.822-1.717,1.095-2.659l0.16-0.552L35,21.227v-4.439l-3.36-0.843l-0.16-0.552   c-0.272-0.942-0.641-1.837-1.095-2.659l-0.278-0.504l1.777-2.967l-3.14-3.14l-2.967,1.777l-0.504-0.278   c-0.822-0.454-1.717-0.822-2.659-1.095l-0.552-0.16l-0.843-3.36H16.78l-0.843,3.36l-0.552,0.16   c-0.942,0.272-1.837,0.641-2.659,1.095l-0.504,0.278L9.256,6.124l-3.14,3.14l1.777,2.967l-0.278,0.504   c-0.454,0.822-0.822,1.717-1.095,2.659l-0.16,0.552L3,16.788v4.439l3.36,0.843l0.16,0.552c0.272,0.942,0.641,1.837,1.095,2.659   l0.278,0.504l-1.777,2.967l3.14,3.14l2.967-1.777l0.504,0.278c0.822,0.454,1.717,0.822,2.659,1.095l0.552,0.16l0.843,3.36h4.439   l0.843-3.36l0.552-0.16c0.942-0.272,1.837-0.641,2.659-1.095l0.504-0.278l2.967,1.777l3.14-3.14L30.106,25.785z M19,30.007   c-6.065,0-11-4.935-11-11s4.935-11,11-11s11,4.935,11,11S25.065,30.007,19,30.007z"/><path d="M19,10.007c-4.963,0-9,4.037-9,9s4.037,9,9,9s9-4.037,9-9S23.963,10.007,19,10.007z M19,18.007c1.654,0,3,1.346,3,3   c0,1.302-0.839,2.402-2,2.816v2.184h-2v-2.184c-1.161-0.414-2-1.514-2-2.816h2c0,0.552,0.448,1,1,1s1-0.448,1-1s-0.448-1-1-1   c-1.654,0-3-1.346-3-3c0-1.302,0.839-2.402,2-2.816v-2.184h2v2.184c1.161,0.414,2,1.514,2,2.816h-2c0-0.552-0.448-1-1-1   s-1,0.448-1,1S18.448,18.007,19,18.007z"/><polygon points="53,25.007 61,19.007 53,13.007 53,16.007 39,16.007 39,22.007 53,22.007  "/><polygon points="11,39.007 3,45.007 11,51.007 11,48.007 25,48.007 25,42.007 11,42.007  "/></g><text x="0" y="79" fill="#000000" font-size="5px" font-weight="bold" font-family="'Helvetica Neue', Helvetica, Arial-Unicode, Arial, Sans-serif">Created by Eucalyp</text><text x="0" y="84" fill="#000000" font-size="5px" font-weight="bold" font-family="'Helvetica Neue', Helvetica, Arial-Unicode, Arial, Sans-serif">from the Noun Project</text></svg>