<?xml version="1.0" encoding="iso-8859-1"?>
<!-- Generator: Adobe Illustrator 19.0.0, SVG Export Plug-In . SVG Version: 6.00 Build 0)  -->
<svg version="1.1" id="Capa_1" xmlns="http://www.w3.org/2000/svg" xmlns:xlink="http://www.w3.org/1999/xlink" x="0px" y="0px"
	 viewBox="0 0 512 512" style="enable-background:new 0 0 512 512;" xml:space="preserve">
<g>
	<g>
		<path d="M504.374,20.104H69.654c-4.211,0-7.626,3.413-7.626,7.626c0,4.213,3.414,7.626,7.626,7.626h427.094v275.298H15.252V27.73
			c0-4.213-3.414-7.626-7.626-7.626C3.414,20.104,0,23.518,0,27.73v290.549v41.943c0,4.213,3.414,7.626,7.626,7.626h189.781
			l-3.586,20.3c-0.733,4.147,2.036,8.104,6.183,8.836c4.148,0.735,8.104-2.036,8.836-6.183l3.921-22.191h84.382l14.132,79.983
			H198.628l2.875-16.274c0.733-4.146-2.036-8.104-6.183-8.836c-4.147-0.735-8.104,2.036-8.837,6.183l-3.344,18.926h-35.194
			c-4.211,0-7.626,3.413-7.626,7.626v28.051c0,4.213,3.414,7.626,7.626,7.626h217.592c4.212,0,7.626-3.413,7.626-7.626v-28.051
			c0-4.213-3.414-7.626-7.626-7.626h-38.775l-14.267-80.745h191.879c4.211,0,7.626-3.413,7.626-7.626v-41.943V27.73
			C512,23.518,508.586,20.104,504.374,20.104z M320.365,463.845h37.546v12.799h-202.34v-12.799h33.965H320.365z M496.748,352.597
			L496.748,352.597H15.252v-26.692h481.496V352.597z"/>
	</g>
</g>
<g>
	<g>
		<path d="M305.894,166.792l-69.897-49.724c-2.326-1.655-5.381-1.873-7.917-0.563c-2.536,1.308-4.13,3.923-4.13,6.777v99.448
			c0,2.854,1.593,5.469,4.13,6.777c1.102,0.568,2.301,0.848,3.496,0.848c1.557,0,3.105-0.476,4.421-1.412l69.897-49.723
			c2.011-1.431,3.205-3.746,3.205-6.214C309.099,170.537,307.904,168.222,305.894,166.792z M239.203,207.945v-69.88l49.116,34.94
			L239.203,207.945z"/>
	</g>
</g>
<g>
	<g>
		<path  d="M254.709,73.099c-4.211,0-7.626,3.413-7.626,7.626c0,4.213,3.414,7.626,7.626,7.626c46.679,0,84.654,37.976,84.654,84.654
			c0,46.678-37.976,84.654-84.654,84.654c-46.679,0-84.654-37.976-84.654-84.654c0-31.154,17.044-59.715,44.483-74.536
			c3.706-2.002,5.087-6.628,3.085-10.334c-2.002-3.705-6.63-5.087-10.334-3.085c-32.374,17.488-52.486,51.191-52.486,87.955
			c0,55.088,44.818,99.906,99.906,99.906s99.906-44.818,99.906-99.906S309.797,73.099,254.709,73.099z"/>
	</g>
</g>
<g>
</g>
<g>
</g>
<g>
</g>
<g>
</g>
<g>
</g>
<g>
</g>
<g>
</g>
<g>
</g>
<g>
</g>
<g>
</g>
<g>
</g>
<g>
</g>
<g>
</g>
<g>
</g>
<g>
</g>
</svg>
