<?xml version="1.0" encoding="iso-8859-1"?>
<!-- Generator: Adobe Illustrator 19.0.0, SVG Export Plug-In . SVG Version: 6.00 Build 0)  -->
<svg version="1.1" id="Layer_1" xmlns="http://www.w3.org/2000/svg" xmlns:xlink="http://www.w3.org/1999/xlink" x="0px" y="0px"
	 viewBox="0 0 508.587 508.587" style="enable-background:new 0 0 508.587 508.587;" xml:space="preserve">
<g transform="translate(1 1)">
	<g>
		<path d="M495.427,440.173L343.947,287.905l110.519-133.598c2.56-3.413,2.56-7.68-0.853-11.093l-3.23-3.23l46.75-75.276
			c2.56-3.413,1.707-7.68,0-10.24l-30.72-30.72c-2.56-2.56-6.827-2.56-10.24-0.853l-75.803,47.077l-2.704-2.704
			c-2.56-3.413-7.68-3.413-11.093-0.853L232.076,177.676l-0.33-0.33c-6.827-6.827-16.213-10.24-25.6-7.68l-41.813,9.387
			c-4.188,1.047-8.05,3.383-10.808,6.606l-39.478-39.093l43.459-43.459c3.413-3.413,3.413-8.533,0-11.947s-8.533-3.413-11.947,0
			l-43.518,43.518l-6.003-5.944l43.547-43.547c3.413-3.413,3.413-8.533,0-11.947s-8.533-3.413-11.947,0l-43.606,43.606l-6.055-5.996
			l41.98-42.73c3.413-3.413,3.413-8.533,0-11.947s-8.533-3.413-11.947,0L65.598,98.589l-6.003-5.944L102.04,50.2
			c3.413-3.413,3.413-8.533,0-11.947s-8.533-3.413-11.947,0L47.59,80.757l-6.003-5.944l43.386-43.386
			c3.413-3.413,3.413-8.533,0-11.947s-8.533-3.413-11.947,0L29.582,62.925l-6.431-6.369L66.2,13.507
			c3.413-3.413,3.413-8.533,0-11.947c-3.413-3.413-8.533-3.413-11.947,0L10.409,45.404C7.596,44.59,4.508,45.332,2.2,47.64
			c-3.413,3.413-3.413,8.533,0,11.947l149.086,146.904c0.919,1.784,2.135,3.463,3.661,4.989l16.419,16.419L15.853,356.547
			c-2.56,1.707-3.413,3.413-3.413,5.973s0.853,4.267,2.56,5.973l68.266,68.266c0,0,0,0,0,0c0,0,0,0,0,0l68.266,68.266
			c1.707,1.707,3.413,2.56,5.973,2.56s5.12-0.853,6.827-2.56l128.648-155.512L389.466,446c0.001,0.001,0.001,0.001,0.002,0.002
			l49.638,49.638c7.68,7.68,17.92,11.947,28.16,11.947c10.24,0,20.48-3.413,28.16-11.093
			C510.787,481.133,510.787,455.533,495.427,440.173z M458.733,40.813l20.48,20.48l-22.61,36.27l-34.14-34.14L458.733,40.813z
			 M407.777,72.578l39.956,39.216L438.253,127l-45.227-45.227L407.777,72.578z M405.653,438.293l20.046-44.478l20.607,20.491
			l-20.082,44.557L405.653,438.293z M372.373,405.013l19.988-44.349l20.607,20.491l-20.024,44.428L372.373,405.013z M370.84,84.333
			l64.853,64.853L193.756,441.436L90.947,338.627c0,0,0,0-0.001-0.001s0,0-0.001-0.001l-12.355-12.355l67.727-56.068l64.949,64.157
			c1.707,1.707,3.413,2.56,5.973,2.56c1.707,0,4.267-0.853,5.973-2.56l89.6-90.453c3.413-3.413,3.413-8.533,0-11.947l-54.484-54.484
			L370.84,84.333z M124.227,453.827l29.013-29.013l10.24,10.24l-29.013,29.013L124.227,453.827z M101.187,430.787l29.013-29.013
			l11.093,11.093L112.28,441.88L101.187,430.787z M78.573,408.173l29.013-29.013l10.667,10.667L89.24,418.84L78.573,408.173z
			 M55.96,385.56l29.013-29.013l10.667,10.667l-29.013,29.013L55.96,385.56z M245.4,188.44l49.493,49.493l-78.507,78.507
			l-56.32-56.32L245.4,188.44z M168.6,195.267l41.813-9.387c0.853,0,1.707,0,2.56,0c2.56,0,4.267,0,6.827,1.707L184.813,216.6
			l-17.067-17.067c-0.853-0.853-0.853-1.707-0.853-2.56S167.747,195.267,168.6,195.267z M65.519,337.093l7.507,7.507l-29.013,29.013
			l-10.24-10.24L65.519,337.093z M156.653,486.253l-9.879-9.879l28.714-29.312l7.446,7.446L156.653,486.253z M332.774,301.412
			l46.856,46.593l-19.966,44.299l-55.866-55.866L332.774,301.412z M484.333,484.547c-9.387,8.533-23.893,8.533-32.427,0
			l-12.974-12.974l20.104-44.607l25.296,25.154C492.867,461.507,492.867,476.013,484.333,484.547z"/>
	</g>
</g>
<g>
</g>
<g>
</g>
<g>
</g>
<g>
</g>
<g>
</g>
<g>
</g>
<g>
</g>
<g>
</g>
<g>
</g>
<g>
</g>
<g>
</g>
<g>
</g>
<g>
</g>
<g>
</g>
<g>
</g>
</svg>
