<?xml version="1.0" encoding="iso-8859-1"?>
<!-- Generator: Adobe Illustrator 18.0.0, SVG Export Plug-In . SVG Version: 6.00 Build 0)  -->
<!DOCTYPE svg PUBLIC "-//W3C//DTD SVG 1.1//EN" "http://www.w3.org/Graphics/SVG/1.1/DTD/svg11.dtd">
<svg version="1.1" id="Capa_1" xmlns="http://www.w3.org/2000/svg" xmlns:xlink="http://www.w3.org/1999/xlink" x="0px" y="0px"
	 viewBox="0 0 395 395" style="enable-background:new 0 0 395 395;" xml:space="preserve">
<g>
	<g>
		<path d="M313.002,395H82c-45.215,0-82-36.789-82-82.009V81.998C0,36.784,36.785,0,82,0h231.002C358.216,0,395,36.784,395,81.998
			v230.993C395,358.211,358.216,395,313.002,395z M82,15c-36.944,0-67,30.055-67,66.998v230.993C15,349.94,45.056,380,82,380
			h231.002C349.944,380,380,349.94,380,312.991V81.998C380,45.055,349.944,15,313.002,15H82z"/>
	</g>
	<path d="M306.5,257.443v-76.687c0-1.831-0.174-3.659-0.515-5.458l-11.723-61.836c-1.865-9.833-8.618-18.034-17.909-21.752
		c-1.41-0.564-35.041-13.822-78.853-13.822s-77.443,13.258-78.853,13.822c-9.293,3.718-16.046,11.919-17.91,21.752l-11.721,61.836
		c-0.342,1.799-0.512,3.627-0.512,5.458v76.682c-1.187,1.363-1.911,3.139-1.911,5.089v17.067c0,4.284,3.473,7.758,7.758,7.758
		h15.096v17.723c0,6.649,5.39,12.038,12.039,12.038h17.04c6.649,0,12.039-5.389,12.039-12.038v-17.723h93.87v17.723
		c0,6.649,5.389,12.038,12.038,12.038h17.04c6.649,0,12.038-5.389,12.038-12.038v-17.723h15.097c4.284,0,7.758-3.474,7.758-7.758
		v-17.067C308.406,260.58,307.684,258.805,306.5,257.443z M180.951,93.521h33.098c4.144,0,7.5,3.357,7.5,7.499
		s-3.356,7.499-7.5,7.499h-33.098c-4.143,0-7.501-3.357-7.501-7.499S176.809,93.521,180.951,93.521z M139.714,254.329
		c-10.282,0-18.618-8.336-18.618-18.618c0-10.283,8.336-18.619,18.618-18.619c10.283,0,18.619,8.336,18.619,18.619
		C158.333,245.993,149.997,254.329,139.714,254.329z M214.049,272.848h-33.098c-4.143,0-7.501-3.357-7.501-7.499
		c0-4.143,3.358-7.5,7.501-7.5h33.098c4.144,0,7.5,3.357,7.5,7.5C221.549,269.49,218.192,272.848,214.049,272.848z M255.285,254.329
		c-10.283,0-18.617-8.336-18.617-18.618c0-10.283,8.334-18.619,18.617-18.619c10.283,0,18.62,8.336,18.62,18.619
		C273.905,245.993,265.568,254.329,255.285,254.329z M117.396,178.843l12.027-60.509c45.384,0,90.771,0,136.156,0l12.025,60.509
		C222.133,178.843,172.867,178.844,117.396,178.843z"/>
</g>
<g>
</g>
<g>
</g>
<g>
</g>
<g>
</g>
<g>
</g>
<g>
</g>
<g>
</g>
<g>
</g>
<g>
</g>
<g>
</g>
<g>
</g>
<g>
</g>
<g>
</g>
<g>
</g>
<g>
</g>
</svg>
